<?xml version="1.0" encoding="UTF-8"?>
<!DOCTYPE svg PUBLIC "-//W3C//DTD SVG 1.1//EN" "http://www.w3.org/Graphics/SVG/1.1/DTD/svg11.dtd">
<svg version="1.1" xmlns="http://www.w3.org/2000/svg" xmlns:xlink="http://www.w3.org/1999/xlink" x="0" y="0" width="94.5" height="94.5" viewBox="0, 0, 378, 378">
  <g id="Layer_1" transform="translate(-100, -91.333)">
    <g>
      <path d="M160.981,140.833 L418.019,140.833 C424.36,140.833 429.5,146.364 429.5,153.186 L429.5,408.48 C429.5,415.303 424.36,420.833 418.019,420.833 L160.981,420.833 C154.64,420.833 149.5,415.303 149.5,408.48 L149.5,153.186 C149.5,146.364 154.64,140.833 160.981,140.833 z" fill="#FFFFFF"/>
      <path d="M160.981,140.833 L418.019,140.833 C424.36,140.833 429.5,146.364 429.5,153.186 L429.5,408.48 C429.5,415.303 424.36,420.833 418.019,420.833 L160.981,420.833 C154.64,420.833 149.5,415.303 149.5,408.48 L149.5,153.186 C149.5,146.364 154.64,140.833 160.981,140.833 z" fill-opacity="0" stroke="#AAAAAA" stroke-width="25"/>
    </g>
    <path d="M231,270.667 C204.674,270.667 183.333,249.326 183.333,223 C183.333,196.674 204.674,175.333 231,175.333 C257.326,175.333 278.667,196.674 278.667,223 C278.667,249.326 257.326,270.667 231,270.667 z" fill="#B00000"/>
    <path d="M347,270.667 C320.674,270.667 299.333,249.326 299.333,223 C299.333,196.674 320.674,175.333 347,175.333 C373.326,175.333 394.667,196.674 394.667,223 C394.667,249.326 373.326,270.667 347,270.667 z" fill="#6D7275"/>
    <path d="M231,385.333 C204.674,385.333 183.333,363.992 183.333,337.667 C183.333,311.341 204.674,290 231,290 C257.326,290 278.667,311.341 278.667,337.667 C278.667,363.992 257.326,385.333 231,385.333 z" fill="#6D7275"/>
    <path d="M347,385.333 C320.674,385.333 299.333,363.992 299.333,337.667 C299.333,311.341 320.674,290 347,290 C373.326,290 394.667,311.341 394.667,337.667 C394.667,363.992 373.326,385.333 347,385.333 z" fill="#6D7275"/>
  </g>
</svg>
